<svg xmlns="http://www.w3.org/2000/svg" width="284" height="323" fill="none">
  <path fill="#146DE6" d="M46.5 209.3a30 30 0 0 1 .2-52.3l84.4-47a30 30 0 0 1 29.4.2l78.7 44.9a30 30 0 0 1 1 51.5L161 256a30 30 0 0 1-30.7.7l-83.8-47.5z" filter="url(#filter)"/>
  <path fill="#146DE6" d="M46.5 189.3a30 30 0 0 1 .2-52.3l84.4-47a30 30 0 0 1 29.4.2l78.7 44.9a30 30 0 0 1 1 51.5L161 236a30 30 0 0 1-30.7.7l-83.8-47.5z" filter="url(#filter)"/>
  <path fill="#146DE6" d="M46.5 169.3a30 30 0 0 1 .2-52.3l84.4-47a30 30 0 0 1 29.4.2l78.7 44.9a30 30 0 0 1 1 51.5L161 216a30 30 0 0 1-30.7.7l-83.8-47.5z" filter="url(#filter)"/>
  <path fill="#fff" d="M97.2 146c0 2.3-.8 4.1-2.5 5.4-1.6 1.3-3.9 2-6.8 2-3 0-5.3-.5-7.1-1.4v-4a19.4 19.4 0 0 0 7.4 1.8c1.6 0 2.9-.3 3.6-1a3 3 0 0 0 1.2-2.5c0-1-.3-1.8-1-2.4-.8-.7-2.3-1.5-4.5-2.4-2.4-1-4-2-5-3.3a6.9 6.9 0 0 1-1.4-4.4c0-2.1.7-3.8 2.2-5a9.5 9.5 0 0 1 6.2-1.9c2.4 0 4.9.6 7.3 1.6l-1.3 3.5a16 16 0 0 0-6.1-1.5c-1.4 0-2.4.3-3.1 1-.7.5-1 1.3-1 2.3 0 .6 0 1.2.3 1.7s.8 1 1.4 1.3c.7.4 1.8 1 3.5 1.7a19 19 0 0 1 4.2 2.2c.8.7 1.5 1.4 1.9 2.3.4.9.6 1.9.6 3zm17.2 4c1 0 2-.1 3-.5v3.1a11.6 11.6 0 0 1-4 .7c-4 0-5.9-2-5.9-6.1v-10.5H105v-1.8l2.8-1.6 1.4-4h2.6v4.3h5.5v3h-5.5v10.5c0 1 .2 1.7.7 2.2.5.5 1.2.7 2 .7zm22.2-16.8c.8 0 1.5 0 2 .2l-.4 3.8-1.8-.2c-1.7 0-3 .6-4 1.6-1 1.1-1.6 2.5-1.6 4.2V153h-4v-19.4h3.1l.6 3.4h.2c.6-1.2 1.5-2 2.5-2.8a6 6 0 0 1 3.4-1zm24.8 19.8l-.6-2.5h-.2c-.6.9-1.4 1.6-2.5 2-1 .6-2.3.9-3.6.9-2.4 0-4.1-.6-5.3-1.8-1.1-1.2-1.7-3-1.7-5.3v-12.7h4.1v12c0 1.4.3 2.6 1 3.3.6.7 1.5 1.1 2.8 1.1 1.8 0 3-.5 3.8-1.5.9-1 1.3-2.8 1.3-5.3v-9.6h4.1V153h-3.2zm22.3.4c-2.9 0-5.1-.9-6.7-2.6-1.5-1.7-2.3-4.2-2.3-7.4 0-3.3.8-5.8 2.4-7.6 1.6-1.7 4-2.6 7-2.6 2 0 3.9.4 5.5 1.2l-1.2 3.3c-1.8-.7-3.2-1-4.4-1-3.3 0-5 2.2-5 6.7 0 2.1.4 3.8 1.2 4.9.9 1 2.1 1.6 3.7 1.6 1.9 0 3.6-.5 5.3-1.4v3.6c-.8.5-1.6.8-2.4 1-.8.2-1.9.3-3 .3zm24.7-.4h-4.2v-22.1h-7.5v-3.6H216v3.6h-7.6V153z"/>
  <defs>
    <filter id="filter" width="266" height="266" x="10" y="55" color-interpolation-filters="sRGB" filterUnits="userSpaceOnUse">
      <feFlood flood-opacity="0" result="BackgroundImageFix"/>
      <feColorMatrix in="SourceAlpha" values="0 0 0 0 0 0 0 0 0 0 0 0 0 0 0 0 0 0 90 0"/>
      <feOffset dy="5"/>
      <feGaussianBlur stdDeviation="4.5"/>
      <feColorMatrix values="0 0 0 0 0.0833333 0 0 0 0 0.0833333 0 0 0 0 0.0833333 0 0 0 0.25 0"/>
      <feBlend in2="BackgroundImageFix" result="effect1_dropShadow"/>
      <feBlend in="SourceGraphic" in2="effect1_dropShadow" result="shape"/>
    </filter>
  </defs>
</svg>